<svg xmlns="http://www.w3.org/2000/svg" xmlns:xlink="http://www.w3.org/1999/xlink">
    <symbol id="call" viewBox="0 -960 960 960">
        <path d="M798-120q-125 0-247-54.5T329-329Q229-429 174.5-551T120-798q0-18 12-30t30-12h162q14 0 25 9.5t13 22.5l26 140q2 16-1 27t-11 19l-97 98q20 37 47.5 71.5T387-386q31 31 65 57.5t72 48.5l94-94q9-9 23.5-13.5T670-390l138 28q14 4 23 14.5t9 23.5v162q0 18-12 30t-30 12ZM241-600l66-66-17-94h-89q5 41 14 81t26 79Zm358 358q39 17 79.5 27t81.5 13v-88l-94-19-67 67ZM241-600Zm358 358Z"/>
    </symbol>

    <symbol id="storefront" viewBox="0 -960 960 960">
        <path d="M201-120q-33 0-56.5-23.5T121-200v-318q-23-21-35.5-54t-.5-72l42-136q8-26 28.5-43t47.5-17h556q27 0 47 16.5t29 43.5l42 136q12 39-.5 71T841-518v318q0 33-23.5 56.5T761-120H201Zm368-440q27 0 41-18.5t11-41.5l-22-140h-78v148q0 21 14 36.5t34 15.5Zm-180 0q23 0 37.5-15.5T441-612v-148h-78l-22 140q-4 24 10.5 42t37.5 18Zm-178 0q18 0 31.5-13t16.5-33l22-154h-78l-40 134q-6 20 6.5 43t41.5 23Zm540 0q29 0 42-23t6-43l-42-134h-76l22 154q3 20 16.5 33t31.5 13ZM201-200h560v-282q-5 2-6.5 2H751q-27 0-47.5-9T663-518q-18 18-41 28t-49 10q-27 0-50.5-10T481-518q-17 18-39.5 28T393-480q-29 0-52.5-10T299-518q-21 21-41.5 29.5T211-480h-4.5q-2.5 0-5.5-2v282Zm560 0H201h560Z"/>
    </symbol>

    <symbol id="oven" viewBox="0 -960 960 960">
        <path d="M200-120q-33 0-56.5-23.5T120-200v-560q0-33 23.5-56.5T200-840h560q33 0 56.5 23.5T840-760v560q0 33-23.5 56.5T760-120H200Zm0-360v280h560v-280h-80v200H280v-200h-80Zm160 120h240v-120H360v120ZM200-560h560v-200H200v200Zm120-80q-17 0-28.5-11.5T280-680q0-17 11.5-28.5T320-720q17 0 28.5 11.5T360-680q0 17-11.5 28.5T320-640Zm160 0q-17 0-28.5-11.5T440-680q0-17 11.5-28.5T480-720q17 0 28.5 11.5T520-680q0 17-11.5 28.5T480-640Zm160 0q-17 0-28.5-11.5T600-680q0-17 11.5-28.5T640-720q17 0 28.5 11.5T680-680q0 17-11.5 28.5T640-640Z"/>
    </symbol>

    <symbol id="badge" viewBox="0 -960 960 960">
        <path d="M240-240h240v-18q0-17-9.5-31.5T444-312q-20-9-40.5-13.5T360-330q-23 0-43.5 4.5T276-312q-17 8-26.5 22.5T240-258v18Zm350-60h100q13 0 21.5-8.5T720-330q0-13-8.5-21.5T690-360H590q-13 0-21.5 8.5T560-330q0 13 8.5 21.5T590-300Zm-230-60q25 0 42.5-17.5T420-420q0-25-17.5-42.5T360-480q-25 0-42.5 17.5T300-420q0 25 17.5 42.5T360-360Zm230-60h100q13 0 21.5-8.5T720-450q0-13-8.5-21.5T690-480H590q-13 0-21.5 8.5T560-450q0 13 8.5 21.5T590-420ZM160-80q-33 0-56.5-23.5T80-160v-440q0-33 23.5-56.5T160-680h200v-120q0-33 23.5-56.5T440-880h80q33 0 56.5 23.5T600-800v120h200q33 0 56.5 23.5T880-600v440q0 33-23.5 56.5T800-80H160Zm0-80h640v-440H600q0 33-23.5 56.5T520-520h-80q-33 0-56.5-23.5T360-600H160v440Zm280-440h80v-200h-80v200Zm40 220Z"/>
    </symbol>

    <symbol id="home" viewBox="0 -960 960 960">
        <path d="M240-200h120v-200q0-17 11.5-28.5T400-440h160q17 0 28.5 11.5T600-400v200h120v-360L480-740 240-560v360Zm-80 0v-360q0-19 8.5-36t23.5-28l240-180q21-16 48-16t48 16l240 180q15 11 23.5 28t8.5 36v360q0 33-23.5 56.5T720-120H560q-17 0-28.5-11.5T520-160v-200h-80v200q0 17-11.5 28.5T400-120H240q-33 0-56.5-23.5T160-200Zm320-270Z"/>
    </symbol>

    <symbol id="menu" viewBox="0 -960 960 960">
        <path d="M160-240q-17 0-28.5-11.5T120-280q0-17 11.5-28.5T160-320h640q17 0 28.5 11.5T840-280q0 17-11.5 28.5T800-240H160Zm0-200q-17 0-28.5-11.5T120-480q0-17 11.5-28.5T160-520h640q17 0 28.5 11.5T840-480q0 17-11.5 28.5T800-440H160Zm0-200q-17 0-28.5-11.5T120-680q0-17 11.5-28.5T160-720h640q17 0 28.5 11.5T840-680q0 17-11.5 28.5T800-640H160Z"/>
    </symbol>

    <symbol id="close" viewBox="0 -960 960 960">
        <path d="M480-424 284-228q-11 11-28 11t-28-11q-11-11-11-28t11-28l196-196-196-196q-11-11-11-28t11-28q11-11 28-11t28 11l196 196 196-196q11-11 28-11t28 11q11 11 11 28t-11 28L536-480l196 196q11 11 11 28t-11 28q-11 11-28 11t-28-11L480-424Z"/>
    </symbol>

    <symbol id="videocam" viewBox="0 -960 960 960">
        <path d="M160-160q-33 0-56.5-23.5T80-240v-480q0-33 23.5-56.5T160-800h480q33 0 56.5 23.5T720-720v180l160-160v440L720-420v180q0 33-23.5 56.5T640-160H160Zm0-80h480v-480H160v480Zm0 0v-480 480Z"/>
    </symbol>
</svg>