<svg xmlns="http://www.w3.org/2000/svg" xmlns:xlink="http://www.w3.org/1999/xlink">
    <symbol id="call" viewBox="0 -960 960 960">
        <path d="M798-120q-125 0-247-54.5T329-329Q229-429 174.5-551T120-798q0-18 12-30t30-12h162q14 0 25 9.5t13 22.5l26 140q2 16-1 27t-11 19l-97 98q20 37 47.5 71.5T387-386q31 31 65 57.5t72 48.5l94-94q9-9 23.5-13.5T670-390l138 28q14 4 23 14.5t9 23.5v162q0 18-12 30t-30 12ZM241-600l66-66-17-94h-89q5 41 14 81t26 79Zm358 358q39 17 79.5 27t81.5 13v-88l-94-19-67 67ZM241-600Zm358 358Z"/>
    </symbol>

    <symbol id="storefront" viewBox="0 -960 960 960">
        <path d="M201-120q-33 0-56.5-23.5T121-200v-318q-23-21-35.5-54t-.5-72l42-136q8-26 28.5-43t47.5-17h556q27 0 47 16.5t29 43.5l42 136q12 39-.5 71T841-518v318q0 33-23.5 56.5T761-120H201Zm368-440q27 0 41-18.5t11-41.5l-22-140h-78v148q0 21 14 36.5t34 15.5Zm-180 0q23 0 37.5-15.5T441-612v-148h-78l-22 140q-4 24 10.5 42t37.5 18Zm-178 0q18 0 31.5-13t16.5-33l22-154h-78l-40 134q-6 20 6.5 43t41.5 23Zm540 0q29 0 42-23t6-43l-42-134h-76l22 154q3 20 16.5 33t31.5 13ZM201-200h560v-282q-5 2-6.5 2H751q-27 0-47.5-9T663-518q-18 18-41 28t-49 10q-27 0-50.5-10T481-518q-17 18-39.5 28T393-480q-29 0-52.5-10T299-518q-21 21-41.5 29.5T211-480h-4.5q-2.5 0-5.5-2v282Zm560 0H201h560Z"/>
    </symbol>

    <symbol id="oven" viewBox="0 -960 960 960">
        <path d="M200-120q-33 0-56.5-23.5T120-200v-560q0-33 23.5-56.5T200-840h560q33 0 56.5 23.5T840-760v560q0 33-23.5 56.5T760-120H200Zm0-360v280h560v-280h-80v200H280v-200h-80Zm160 120h240v-120H360v120ZM200-560h560v-200H200v200Zm120-80q-17 0-28.5-11.5T280-680q0-17 11.5-28.5T320-720q17 0 28.5 11.5T360-680q0 17-11.5 28.5T320-640Zm160 0q-17 0-28.5-11.5T440-680q0-17 11.5-28.5T480-720q17 0 28.5 11.5T520-680q0 17-11.5 28.5T480-640Zm160 0q-17 0-28.5-11.5T600-680q0-17 11.5-28.5T640-720q17 0 28.5 11.5T680-680q0 17-11.5 28.5T640-640Z"/>
    </symbol>

    <symbol id="croissant" viewBox="0 -960 960 960">
        <path xmlns="http://www.w3.org/2000/svg" d="M804-282q17 9 30-4t4-30l-58-108-42 108 66 34Zm-200-38h48l96-238q3-8-1.5-13.5T736-580l-80-32q-9-3-17.5 2T628-596l-24 276Zm-296 0h48l-24-276q-2-11-10.5-15t-17.5-1l-80 32q-8 3-11.5 8.5T212-558l96 238Zm-152 38 66-34-42-108-58 108q-9 17 4 30t30 4Zm280-38h88l30-338q2-9-4.5-15.5T534-680H426q-8 0-14.5 6.5T406-658l30 338ZM138-200q-42 0-70-31.5T40-306q0-12 3.5-23.5T52-352l88-168q-14-40 1-79t53-55l80-32q14-5 28-7t28 1q14-29 39-48.5t57-19.5h108q32 0 57 19.5t39 48.5q14-2 28-.5t28 6.5l80 32q40 16 56 55t-2 77l88 168q6 11 9 23t3 25q0 45-30.5 75.5T814-200q-11 0-22-2.5t-22-7.5l-62-30H250l-56 30q-13 7-27.5 8.5T138-200Zm342-280Z"/>
    </symbol>

    <symbol id="badge" viewBox="0 -960 960 960">
        <path d="M240-240h240v-18q0-17-9.5-31.5T444-312q-20-9-40.5-13.5T360-330q-23 0-43.5 4.5T276-312q-17 8-26.5 22.5T240-258v18Zm350-60h100q13 0 21.5-8.5T720-330q0-13-8.5-21.5T690-360H590q-13 0-21.5 8.5T560-330q0 13 8.5 21.5T590-300Zm-230-60q25 0 42.5-17.5T420-420q0-25-17.5-42.5T360-480q-25 0-42.5 17.5T300-420q0 25 17.5 42.5T360-360Zm230-60h100q13 0 21.5-8.5T720-450q0-13-8.5-21.5T690-480H590q-13 0-21.5 8.5T560-450q0 13 8.5 21.5T590-420ZM160-80q-33 0-56.5-23.5T80-160v-440q0-33 23.5-56.5T160-680h200v-120q0-33 23.5-56.5T440-880h80q33 0 56.5 23.5T600-800v120h200q33 0 56.5 23.5T880-600v440q0 33-23.5 56.5T800-80H160Zm0-80h640v-440H600q0 33-23.5 56.5T520-520h-80q-33 0-56.5-23.5T360-600H160v440Zm280-440h80v-200h-80v200Zm40 220Z"/>
    </symbol>

    <symbol id="home" viewBox="0 -960 960 960">
        <path d="M240-200h120v-200q0-17 11.5-28.5T400-440h160q17 0 28.5 11.5T600-400v200h120v-360L480-740 240-560v360Zm-80 0v-360q0-19 8.5-36t23.5-28l240-180q21-16 48-16t48 16l240 180q15 11 23.5 28t8.5 36v360q0 33-23.5 56.5T720-120H560q-17 0-28.5-11.5T520-160v-200h-80v200q0 17-11.5 28.5T400-120H240q-33 0-56.5-23.5T160-200Zm320-270Z"/>
    </symbol>

    <symbol id="menu" viewBox="0 -960 960 960">
        <path d="M160-240q-17 0-28.5-11.5T120-280q0-17 11.5-28.5T160-320h640q17 0 28.5 11.5T840-280q0 17-11.5 28.5T800-240H160Zm0-200q-17 0-28.5-11.5T120-480q0-17 11.5-28.5T160-520h640q17 0 28.5 11.5T840-480q0 17-11.5 28.5T800-440H160Zm0-200q-17 0-28.5-11.5T120-680q0-17 11.5-28.5T160-720h640q17 0 28.5 11.5T840-680q0 17-11.5 28.5T800-640H160Z"/>
    </symbol>

    <symbol id="close" viewBox="0 -960 960 960">
        <path d="M480-424 284-228q-11 11-28 11t-28-11q-11-11-11-28t11-28l196-196-196-196q-11-11-11-28t11-28q11-11 28-11t28 11l196 196 196-196q11-11 28-11t28 11q11 11 11 28t-11 28L536-480l196 196q11 11 11 28t-11 28q-11 11-28 11t-28-11L480-424Z"/>
    </symbol>

    <symbol id="videocam" viewBox="0 -960 960 960">
        <path d="M160-160q-33 0-56.5-23.5T80-240v-480q0-33 23.5-56.5T160-800h480q33 0 56.5 23.5T720-720v180l160-160v440L720-420v180q0 33-23.5 56.5T640-160H160Zm0-80h480v-480H160v480Zm0 0v-480 480Z"/>
    </symbol>

    <symbol id="menu-card" viewBox="0 -960 960 960">
        <path xmlns="http://www.w3.org/2000/svg" d="M560-564v-68q33-14 67.5-21t72.5-7q26 0 51 4t49 10v64q-24-9-48.5-13.5T700-600q-38 0-73 9.5T560-564Zm0 220v-68q33-14 67.5-21t72.5-7q26 0 51 4t49 10v64q-24-9-48.5-13.5T700-380q-38 0-73 9t-67 27Zm0-110v-68q33-14 67.5-21t72.5-7q26 0 51 4t49 10v64q-24-9-48.5-13.5T700-490q-38 0-73 9.5T560-454ZM260-320q47 0 91.5 10.5T440-278v-394q-41-24-87-36t-93-12q-36 0-71.5 7T120-692v396q35-12 69.5-18t70.5-6Zm260 42q44-21 88.5-31.5T700-320q36 0 70.5 6t69.5 18v-396q-33-14-68.5-21t-71.5-7q-47 0-93 12t-87 36v394Zm-40 118q-48-38-104-59t-116-21q-42 0-82.5 11T100-198q-21 11-40.5-1T40-234v-482q0-11 5.5-21T62-752q46-24 96-36t102-12q58 0 113.5 15T480-740q51-30 106.5-45T700-800q52 0 102 12t96 36q11 5 16.5 15t5.5 21v482q0 23-19.5 35t-40.5 1q-37-20-77.5-31T700-240q-60 0-116 21t-104 59ZM280-494Z"/>
    </symbol>

    <symbol id="expand" viewBox="0 -960 960 960">
        <path xmlns="http://www.w3.org/2000/svg" d="M480-344 240-584l56-56 184 184 184-184 56 56-240 240Z"/>
    </symbol>

    <symbol id="collapse" viewBox="0 -960 960 960">
        <path xmlns="http://www.w3.org/2000/svg" d="M480-528 296-344l-56-56 240-240 240 240-56 56-184-184Z"/>
    </symbol>

    <symbol id="tier" viewBox="0 -960 960 960">
        <path xmlns="http://www.w3.org/2000/svg" d="M480-400 40-640l440-240 440 240-440 240Zm0 160L63-467l84-46 333 182 333-182 84 46-417 227Zm0 160L63-307l84-46 333 182 333-182 84 46L480-80Zm0-411 273-149-273-149-273 149 273 149Zm0-149Z"/>
    </symbol>

    <symbol id="social-facebook" viewBox="0 -960 3199.9998 3188.2816">
        <defs>
            <clipPath clipPathUnits="userSpaceOnUse" id="clipPath">
                <path d="M 0,700 H 700 V 0 H 0 Z" transform="translate(-600.00002,-350.00001)"/>
            </clipPath>
        </defs>

        <g transform="translate(1119.9999,1114.1407)">
            <path d="m 0,0 c 0,138.071 -111.929,250 -250,250 -138.071,0 -250,-111.929 -250,-250 0,-117.245 80.715,-215.622 189.606,-242.638 v 166.242 h -51.552 V 0 h 51.552 v 32.919 c 0,85.092 38.508,124.532 122.048,124.532 15.838,0 43.167,-3.105 54.347,-6.211 V 81.986 c -5.901,0.621 -16.149,0.932 -28.882,0.932 -40.993,0 -56.832,-15.528 -56.832,-55.9 V 0 h 81.659 l -14.028,-76.396 h -67.631 V -248.169 C -95.927,-233.218 0,-127.818 0,0" clip-path="url(#clipPath)" transform="matrix(6.3999998,0,0,-6.3999998,2080,-474.1408)"/>
        </g>
    </symbol>

    <symbol id="social-instagram" viewBox="0 0 1000 1000">
        <path d="M295.42,6c-53.2,2.51-89.53,11-121.29,23.48-32.87,12.81-60.73,30-88.45,57.82S40.89,143,28.17,175.92c-12.31,31.83-20.65,68.19-23,121.42S2.3,367.68,2.56,503.46,3.42,656.26,6,709.6c2.54,53.19,11,89.51,23.48,121.28,12.83,32.87,30,60.72,57.83,88.45S143,964.09,176,976.83c31.8,12.29,68.17,20.67,121.39,23s70.35,2.87,206.09,2.61,152.83-.86,206.16-3.39S799.1,988,830.88,975.58c32.87-12.86,60.74-30,88.45-57.84S964.1,862,976.81,829.06c12.32-31.8,20.69-68.17,23-121.35,2.33-53.37,2.88-70.41,2.62-206.17s-.87-152.78-3.4-206.1-11-89.53-23.47-121.32c-12.85-32.87-30-60.7-57.82-88.45S862,40.87,829.07,28.19c-31.82-12.31-68.17-20.7-121.39-23S637.33,2.3,501.54,2.56,348.75,3.4,295.42,6m5.84,903.88c-48.75-2.12-75.22-10.22-92.86-17-23.36-9-40-19.88-57.58-37.29s-28.38-34.11-37.5-57.42c-6.85-17.64-15.1-44.08-17.38-92.83-2.48-52.69-3-68.51-3.29-202s.22-149.29,2.53-202c2.08-48.71,10.23-75.21,17-92.84,9-23.39,19.84-40,37.29-57.57s34.1-28.39,57.43-37.51c17.62-6.88,44.06-15.06,92.79-17.38,52.73-2.5,68.53-3,202-3.29s149.31.21,202.06,2.53c48.71,2.12,75.22,10.19,92.83,17,23.37,9,40,19.81,57.57,37.29s28.4,34.07,37.52,57.45c6.89,17.57,15.07,44,17.37,92.76,2.51,52.73,3.08,68.54,3.32,202s-.23,149.31-2.54,202c-2.13,48.75-10.21,75.23-17,92.89-9,23.35-19.85,40-37.31,57.56s-34.09,28.38-57.43,37.5c-17.6,6.87-44.07,15.07-92.76,17.39-52.73,2.48-68.53,3-202.05,3.29s-149.27-.25-202-2.53m407.6-674.61a60,60,0,1,0,59.88-60.1,60,60,0,0,0-59.88,60.1M245.77,503c.28,141.8,115.44,256.49,257.21,256.22S759.52,643.8,759.25,502,643.79,245.48,502,245.76,245.5,361.22,245.77,503m90.06-.18a166.67,166.67,0,1,1,167,166.34,166.65,166.65,0,0,1-167-166.34" transform="translate(-2.5 -2.5)"/>
    </symbol>

    <symbol id="social-whatsapp" viewBox="0 0 360 362">
        <path xmlns="http://www.w3.org/2000/svg" fill-rule="evenodd" clip-rule="evenodd" d="M307.546 52.5655C273.709 18.685 228.706 0.0171895 180.756 0C81.951 0 1.53846 80.404 1.50408 179.235C1.48689 210.829 9.74646 241.667 25.4319 268.844L0 361.736L95.0236 336.811C121.203 351.096 150.683 358.616 180.679 358.625H180.756C279.544 358.625 359.966 278.212 360 179.381C360.017 131.483 341.392 86.4547 307.546 52.5741V52.5655ZM180.756 328.354H180.696C153.966 328.346 127.744 321.16 104.865 307.589L99.4242 304.358L43.034 319.149L58.0834 264.168L54.5423 258.53C39.6304 234.809 31.749 207.391 31.7662 179.244C31.8006 97.1036 98.6334 30.2707 180.817 30.2707C220.61 30.2879 258.015 45.8015 286.145 73.9665C314.276 102.123 329.755 139.562 329.738 179.364C329.703 261.513 262.871 328.346 180.756 328.346V328.354ZM262.475 216.777C257.997 214.534 235.978 203.704 231.869 202.209C227.761 200.713 224.779 199.966 221.796 204.452C218.814 208.939 210.228 219.029 207.615 222.011C205.002 225.002 202.389 225.372 197.911 223.128C193.434 220.885 179.003 216.158 161.891 200.902C148.578 189.024 139.587 174.362 136.975 169.875C134.362 165.389 136.7 162.965 138.934 160.739C140.945 158.728 143.412 155.505 145.655 152.892C147.899 150.279 148.638 148.406 150.133 145.423C151.629 142.432 150.881 139.82 149.764 137.576C148.646 135.333 139.691 113.287 135.952 104.323C132.316 95.5909 128.621 96.777 125.879 96.6309C123.266 96.5019 120.284 96.4762 117.293 96.4762C114.302 96.4762 109.454 97.5935 105.346 102.08C101.238 106.566 89.6691 117.404 89.6691 139.441C89.6691 161.478 105.716 182.785 107.959 185.776C110.202 188.767 139.544 234.001 184.469 253.408C195.153 258.023 203.498 260.782 210.004 262.845C220.731 266.257 230.494 265.776 238.212 264.624C246.816 263.335 264.71 253.786 268.44 243.326C272.17 232.866 272.17 223.893 271.053 222.028C269.936 220.163 266.945 219.037 262.467 216.794L262.475 216.777Z"/>
    </symbol>

    <symbol id="add" viewBox="0 -960 960 960">
        <path xmlns="http://www.w3.org/2000/svg" d="M440-440H240q-17 0-28.5-11.5T200-480q0-17 11.5-28.5T240-520h200v-200q0-17 11.5-28.5T480-760q17 0 28.5 11.5T520-720v200h200q17 0 28.5 11.5T760-480q0 17-11.5 28.5T720-440H520v200q0 17-11.5 28.5T480-200q-17 0-28.5-11.5T440-240v-200Z"/>
    </symbol>

    <symbol id="subtract" viewBox="0 -960 960 960">
        <path xmlns="http://www.w3.org/2000/svg" d="M240-440q-17 0-28.5-11.5T200-480q0-17 11.5-28.5T240-520h480q17 0 28.5 11.5T760-480q0 17-11.5 28.5T720-440H240Z"/>
    </symbol>

    <symbol id="show-cart" viewBox="0 -960 960 960">
        <path d="M280-80q-33 0-56.5-23.5T200-160q0-33 23.5-56.5T280-240q33 0 56.5 23.5T360-160q0 33-23.5 56.5T280-80Zm400 0q-33 0-56.5-23.5T600-160q0-33 23.5-56.5T680-240q33 0 56.5 23.5T760-160q0 33-23.5 56.5T680-80ZM246-720l96 200h280l110-200H246Zm-38-80h590q23 0 35 20.5t1 41.5L692-482q-11 20-29.5 31T622-440H324l-44 80h440q17 0 28.5 11.5T760-320q0 17-11.5 28.5T720-280H280q-45 0-68-39.5t-2-78.5l54-98-144-304H80q-17 0-28.5-11.5T40-840q0-17 11.5-28.5T80-880h65q11 0 21 6t15 17l27 57Zm134 280h280-280Z"/>
    </symbol>

    <symbol id="hide-cart" viewBox="0 -960 960 960">
        <path d="m633-440-80-80h69l110-200H353l-80-80h525q23 0 35.5 19.5t.5 42.5L692-482q-11 20-28.5 31T633-440ZM280-80q-33 0-56.5-23.5T200-160q0-33 23.5-56.5T280-240q33 0 56.5 23.5T360-160q0 33-23.5 56.5T280-80Zm512 24L566-280H304q-44 0-67-37.5t-3-78.5l42-86-72-162L56-792q-11-11-11-28t11-28q11-11 28-11t28 11l736 736q11 11 11.5 27.5T848-56q-11 11-28 11t-28-11ZM486-360l-80-80h-62l-40 80h182Zm136-160h-69 69Zm58 440q-33 0-56.5-23.5T600-160q0-33 23.5-56.5T680-240q33 0 56.5 23.5T760-160q0 33-23.5 56.5T680-80Z"/>
    </symbol>
</svg>